# xmcd CD database file
#
# Track frame offsets:
#	150
#	13773
#	33111
#	52478
#	71951
#	104796
#	126560
#	153683
#	176694
#	192644
#	214448
#	233856
#
# Disc length: 3415 seconds
#
# Revision: 0
# Processed by: cddbd v1.5.2PL0 Copyright (c) Steve Scherf et al.
# Submitted via: CDex 1.51
#
DISCID=c80d550c
DTITLE=Various Artist - Congreso Mundial de la Salsa - Nr. 4
DYEAR=2005
DGENRE=Salsa
TTITLE0=Protagonistas de la Salsa - Salsa (Tema)
TTITLE1=Miami's Band - Songorocotongo
TTITLE2=Jimmy Saa - Son Montuno
TTITLE3=bombón - Juan Candela
TTITLE4=Andy Montañez - Un verano en Nueva York
TTITLE5=Sonora Latina - Hoy puede ser un gran día
TTITLE6=J.J. Oliveros - Descarga en do
TTITLE7=Puerto Rican Masters - Fuego a la jicotea
TTITLE8=Bimbo G - Pare cochero
TTITLE9=La Mundial - Herencia
TTITLE10=Havana Power Band - Me acuerdo de ti
TTITLE11=Tirso Duarte - Charanguero mayor
EXTD=YEAR: 2005
EXTT0=
EXTT1=
EXTT2=
EXTT3=
EXTT4=
EXTT5=
EXTT6=
EXTT7=
EXTT8=
EXTT9=
EXTT10=
EXTT11=
PLAYORDER=
